M48
;DRILL file {KiCad 4.0.7} date 05/06/20 17:17:57
;FORMAT={-:-/ absolute / metric / decimal}
FMAT,2
METRIC,TZ
T1C0.400
T2C1.000
T3C1.200
%
G90
G05
M71
T1
X115.4Y-97.5
X115.5Y-95.3
X115.5Y-107.1
X115.6Y-93.1
X115.6Y-102.3
X115.6Y-104.7
X115.7Y-79.6
X115.7Y-81.
X115.7Y-82.7
X115.7Y-100.
X115.8Y-90.7
X115.9Y-88.7
X116.4Y-94.6
X116.8Y-78.8
X117.Y-108.1
X117.2Y-92.8
X117.2Y-95.5
X119.2Y-108.1
X119.7Y-78.8
X121.412Y-95.504
X121.8Y-108.1
X122.5Y-78.7
X124.Y-94.6
X124.5Y-108.2
X125.5Y-78.8
X125.5Y-95.7
X126.43Y-96.16
X126.8Y-108.2
X127.8Y-93.1
X129.3Y-79.
X129.4Y-108.2
X130.2Y-93.1
X131.6Y-108.2
X132.7Y-79.1
X134.3Y-108.2
X136.8Y-79.3
X136.9Y-108.2
X137.Y-87.5
X139.2Y-108.1
X140.9Y-79.2
X141.4Y-108.2
X142.6Y-89.7
X142.75Y-84.025
X143.525Y-86.725
X143.8Y-108.2
X144.35Y-84.375
X145.Y-79.3
X145.77Y-93.45
X145.86Y-92.57
X146.4Y-108.2
X147.325Y-86.625
X147.76Y-93.71
X147.9Y-79.2
X148.225Y-83.75
X149.1Y-108.2
X150.Y-100.5
X151.Y-79.2
X151.6Y-108.2
X152.075Y-91.275
X154.2Y-79.4
X154.3Y-108.
X154.35Y-92.9
X155.05Y-91.775
X155.27Y-92.69
X155.91Y-95.6
X156.19Y-100.5
X156.41Y-94.5
X156.72Y-97.91
X156.8Y-95.35
X156.8Y-108.1
X157.7Y-79.2
X157.81Y-93.22
X159.3Y-108.1
X159.4Y-95.35
X159.95Y-95.85
X160.1Y-79.
X160.4Y-81.6
X161.5Y-108.2
X161.544Y-106.426
X161.6Y-81.6
X162.1Y-78.9
X162.56Y-103.886
X162.6Y-82.4
X163.4Y-108.2
X164.5Y-79.
X165.3Y-108.1
X166.6Y-78.9
X167.7Y-108.1
X168.6Y-79.
X170.Y-108.2
X171.1Y-79.2
X171.57Y-81.93
X172.Y-108.3
X172.65Y-106.7
X172.74Y-81.31
X173.1Y-79.1
X173.7Y-92.55
X173.74Y-82.04
X173.95Y-105.35
X174.5Y-108.2
X175.08Y-93.79
X175.17Y-78.9
X175.5Y-107.55
X176.25Y-92.93
X176.39Y-107.05
X176.63Y-80.19
X177.24Y-78.99
X177.3Y-108.2
X177.68Y-105.6
X177.87Y-79.83
X178.8Y-107.33
X179.13Y-80.89
X180.1Y-108.
X180.16Y-79.06
X181.5Y-81.
X182.Y-83.25
X182.Y-105.75
T3
X132.5Y-97.
X132.5Y-102.
X137.54Y-99.5
T2
X117.952Y-84.598G85X117.952Y-86.598
G05
X119.952Y-90.298G85X121.952Y-90.298
G05
X123.952Y-84.598G85X123.952Y-86.598
G05
T0
M30
