G04 #@! TF.FileFunction,Legend,Top*
%FSLAX46Y46*%
G04 Gerber Fmt 4.6, Leading zero omitted, Abs format (unit mm)*
G04 Created by KiCad (PCBNEW 4.0.7) date 05/06/20 17:17:56*
%MOMM*%
%LPD*%
G01*
G04 APERTURE LIST*
%ADD10C,0.100000*%
%ADD11C,0.120000*%
%ADD12C,0.150000*%
G04 APERTURE END LIST*
D10*
D11*
X167728000Y-84574000D02*
X167728000Y-83574000D01*
X166028000Y-83574000D02*
X166028000Y-84574000D01*
X119372000Y-93384000D02*
X118372000Y-93384000D01*
X118372000Y-95084000D02*
X119372000Y-95084000D01*
X127350000Y-91000000D02*
X127350000Y-90000000D01*
X125650000Y-90000000D02*
X125650000Y-91000000D01*
X134000000Y-104150000D02*
X133000000Y-104150000D01*
X133000000Y-105850000D02*
X134000000Y-105850000D01*
X155075000Y-89975000D02*
X156075000Y-89975000D01*
X156075000Y-88275000D02*
X155075000Y-88275000D01*
X162287320Y-84487640D02*
X162287320Y-83487640D01*
X160587320Y-83487640D02*
X160587320Y-84487640D01*
X164600000Y-90512000D02*
X165600000Y-90512000D01*
X165600000Y-88812000D02*
X164600000Y-88812000D01*
X173230000Y-88530000D02*
X174230000Y-88530000D01*
X174230000Y-86830000D02*
X173230000Y-86830000D01*
X161125000Y-101275000D02*
X162125000Y-101275000D01*
X162125000Y-99575000D02*
X161125000Y-99575000D01*
X161730000Y-103290000D02*
X161730000Y-104290000D01*
X163430000Y-104290000D02*
X163430000Y-103290000D01*
X171275000Y-102900000D02*
X172275000Y-102900000D01*
X172275000Y-101200000D02*
X171275000Y-101200000D01*
X126450000Y-105680000D02*
X129750000Y-105680000D01*
X129750000Y-105680000D02*
X129750000Y-98780000D01*
X126450000Y-105680000D02*
X126450000Y-98780000D01*
X139750000Y-104500000D02*
X139750000Y-101300000D01*
X141250000Y-101300000D02*
X141250000Y-104500000D01*
X141250000Y-101300000D02*
X139750000Y-101300000D01*
X118952000Y-90198000D02*
X110152000Y-90198000D01*
X110152000Y-90198000D02*
X110152000Y-80998000D01*
X124852000Y-87498000D02*
X124852000Y-90198000D01*
X124852000Y-90198000D02*
X122952000Y-90198000D01*
X110152000Y-80998000D02*
X124852000Y-80998000D01*
X124852000Y-80998000D02*
X124852000Y-83598000D01*
X129320000Y-84000000D02*
X129320000Y-82800000D01*
X131080000Y-82800000D02*
X131080000Y-84000000D01*
X142620000Y-97600000D02*
X142620000Y-96400000D01*
X144380000Y-96400000D02*
X144380000Y-97600000D01*
X142920000Y-91660000D02*
X143850000Y-91660000D01*
X146080000Y-91660000D02*
X145150000Y-91660000D01*
X146080000Y-91660000D02*
X146080000Y-89500000D01*
X142920000Y-91660000D02*
X142920000Y-90200000D01*
X160083620Y-90017060D02*
X159153620Y-90017060D01*
X156923620Y-90017060D02*
X157853620Y-90017060D01*
X156923620Y-90017060D02*
X156923620Y-92177060D01*
X160083620Y-90017060D02*
X160083620Y-91477060D01*
X170998000Y-86108000D02*
X170068000Y-86108000D01*
X167838000Y-86108000D02*
X168768000Y-86108000D01*
X167838000Y-86108000D02*
X167838000Y-88268000D01*
X170998000Y-86108000D02*
X170998000Y-87568000D01*
X155900000Y-103122000D02*
X156830000Y-103122000D01*
X159060000Y-103122000D02*
X158130000Y-103122000D01*
X159060000Y-103122000D02*
X159060000Y-100962000D01*
X155900000Y-103122000D02*
X155900000Y-101662000D01*
X164594000Y-102052000D02*
X164594000Y-102982000D01*
X164594000Y-105212000D02*
X164594000Y-104282000D01*
X164594000Y-105212000D02*
X166754000Y-105212000D01*
X164594000Y-102052000D02*
X166054000Y-102052000D01*
X123400000Y-93620000D02*
X124600000Y-93620000D01*
X124600000Y-95380000D02*
X123400000Y-95380000D01*
X130100000Y-95380000D02*
X128900000Y-95380000D01*
X128900000Y-93620000D02*
X130100000Y-93620000D01*
X141380000Y-97400000D02*
X141380000Y-98600000D01*
X139620000Y-98600000D02*
X139620000Y-97400000D01*
X148180000Y-90550000D02*
X148180000Y-91750000D01*
X146420000Y-91750000D02*
X146420000Y-90550000D01*
X160830000Y-91790000D02*
X160830000Y-90590000D01*
X162590000Y-90590000D02*
X162590000Y-91790000D01*
X160036400Y-83321600D02*
X160036400Y-84521600D01*
X158276400Y-84521600D02*
X158276400Y-83321600D01*
X161050000Y-88530000D02*
X159850000Y-88530000D01*
X159850000Y-86770000D02*
X161050000Y-86770000D01*
X158410000Y-94190000D02*
X157210000Y-94190000D01*
X157210000Y-92430000D02*
X158410000Y-92430000D01*
X170272000Y-90542000D02*
X169072000Y-90542000D01*
X169072000Y-88782000D02*
X170272000Y-88782000D01*
X165580000Y-83400000D02*
X165580000Y-84600000D01*
X163820000Y-84600000D02*
X163820000Y-83400000D01*
X173520000Y-83560000D02*
X173520000Y-84760000D01*
X171760000Y-84760000D02*
X171760000Y-83560000D01*
X157645000Y-98525000D02*
X157645000Y-97325000D01*
X159405000Y-97325000D02*
X159405000Y-98525000D01*
X165150000Y-105595000D02*
X166350000Y-105595000D01*
X166350000Y-107355000D02*
X165150000Y-107355000D01*
X159520000Y-104400000D02*
X159520000Y-103200000D01*
X161280000Y-103200000D02*
X161280000Y-104400000D01*
X168045000Y-105650000D02*
X168045000Y-104450000D01*
X169805000Y-104450000D02*
X169805000Y-105650000D01*
X131350000Y-102850000D02*
X131100000Y-102850000D01*
X131100000Y-102850000D02*
X131100000Y-102600000D01*
X131100000Y-102600000D02*
X130850000Y-102600000D01*
X130850000Y-102600000D02*
X130850000Y-101350000D01*
X130850000Y-101350000D02*
X131100000Y-101350000D01*
X131100000Y-101350000D02*
X131100000Y-97700000D01*
X131100000Y-97700000D02*
X130850000Y-97700000D01*
X130850000Y-97700000D02*
X130850000Y-96400000D01*
X130850000Y-96400000D02*
X131100000Y-96400000D01*
X131100000Y-96400000D02*
X131100000Y-96100000D01*
X131100000Y-96100000D02*
X131350000Y-96100000D01*
X138400000Y-100650000D02*
X138400000Y-101550000D01*
X138400000Y-101550000D02*
X136900000Y-102900000D01*
X136900000Y-102900000D02*
X133600000Y-102900000D01*
X133600000Y-96100000D02*
X136950000Y-96100000D01*
X136950000Y-96100000D02*
X138400000Y-97450000D01*
X138400000Y-97450000D02*
X138400000Y-98350000D01*
X149850000Y-88725000D02*
X149850000Y-87725000D01*
X148150000Y-87725000D02*
X148150000Y-88725000D01*
X148225000Y-87150000D02*
X148225000Y-86150000D01*
X146525000Y-86150000D02*
X146525000Y-87150000D01*
X152285000Y-89880000D02*
X152285000Y-88950000D01*
X152285000Y-86720000D02*
X152285000Y-87650000D01*
X152285000Y-86720000D02*
X150125000Y-86720000D01*
X152285000Y-89880000D02*
X150825000Y-89880000D01*
X153310000Y-86330000D02*
X153310000Y-85130000D01*
X155070000Y-85130000D02*
X155070000Y-86330000D01*
X146480000Y-86175000D02*
X146480000Y-87375000D01*
X144720000Y-87375000D02*
X144720000Y-86175000D01*
X152750000Y-92105000D02*
X151550000Y-92105000D01*
X151550000Y-90345000D02*
X152750000Y-90345000D01*
X142700000Y-86275000D02*
X142700000Y-87275000D01*
X144400000Y-87275000D02*
X144400000Y-86275000D01*
X155890000Y-97450000D02*
X155890000Y-98450000D01*
X157590000Y-98450000D02*
X157590000Y-97450000D01*
X126400000Y-98800000D02*
X126400000Y-97800000D01*
X124700000Y-97800000D02*
X124700000Y-98800000D01*
X174110000Y-91670000D02*
X174110000Y-90470000D01*
X175870000Y-90470000D02*
X175870000Y-91670000D01*
X177090000Y-86770000D02*
X175890000Y-86770000D01*
X175890000Y-85010000D02*
X177090000Y-85010000D01*
X178620000Y-81860000D02*
X178620000Y-83060000D01*
X176860000Y-83060000D02*
X176860000Y-81860000D01*
X173320000Y-106000000D02*
X173320000Y-104800000D01*
X175080000Y-104800000D02*
X175080000Y-106000000D01*
X176960000Y-102870000D02*
X175760000Y-102870000D01*
X175760000Y-101110000D02*
X176960000Y-101110000D01*
X176760000Y-106070000D02*
X176760000Y-104870000D01*
X178520000Y-104870000D02*
X178520000Y-106070000D01*
X149900000Y-84345000D02*
X151100000Y-84345000D01*
X151100000Y-86105000D02*
X149900000Y-86105000D01*
X166950000Y-90645000D02*
X168150000Y-90645000D01*
X168150000Y-92405000D02*
X166950000Y-92405000D01*
X165625000Y-99570000D02*
X166825000Y-99570000D01*
X166825000Y-101330000D02*
X165625000Y-101330000D01*
X124350000Y-100380000D02*
X124350000Y-98880000D01*
X124350000Y-98880000D02*
X124080000Y-98880000D01*
X124080000Y-98880000D02*
X124080000Y-96050000D01*
X117450000Y-100380000D02*
X117450000Y-98880000D01*
X117450000Y-98880000D02*
X117720000Y-98880000D01*
X117720000Y-98880000D02*
X117720000Y-97780000D01*
D12*
X166965334Y-81129143D02*
X166917715Y-81176762D01*
X166774858Y-81224381D01*
X166679620Y-81224381D01*
X166536762Y-81176762D01*
X166441524Y-81081524D01*
X166393905Y-80986286D01*
X166346286Y-80795810D01*
X166346286Y-80652952D01*
X166393905Y-80462476D01*
X166441524Y-80367238D01*
X166536762Y-80272000D01*
X166679620Y-80224381D01*
X166774858Y-80224381D01*
X166917715Y-80272000D01*
X166965334Y-80319619D01*
X167298667Y-80224381D02*
X167965334Y-80224381D01*
X167536762Y-81224381D01*
X118483334Y-93107143D02*
X118435715Y-93154762D01*
X118292858Y-93202381D01*
X118197620Y-93202381D01*
X118054762Y-93154762D01*
X117959524Y-93059524D01*
X117911905Y-92964286D01*
X117864286Y-92773810D01*
X117864286Y-92630952D01*
X117911905Y-92440476D01*
X117959524Y-92345238D01*
X118054762Y-92250000D01*
X118197620Y-92202381D01*
X118292858Y-92202381D01*
X118435715Y-92250000D01*
X118483334Y-92297619D01*
X119435715Y-93202381D02*
X118864286Y-93202381D01*
X119150000Y-93202381D02*
X119150000Y-92202381D01*
X119054762Y-92345238D01*
X118959524Y-92440476D01*
X118864286Y-92488095D01*
X128635143Y-90666666D02*
X128682762Y-90714285D01*
X128730381Y-90857142D01*
X128730381Y-90952380D01*
X128682762Y-91095238D01*
X128587524Y-91190476D01*
X128492286Y-91238095D01*
X128301810Y-91285714D01*
X128158952Y-91285714D01*
X127968476Y-91238095D01*
X127873238Y-91190476D01*
X127778000Y-91095238D01*
X127730381Y-90952380D01*
X127730381Y-90857142D01*
X127778000Y-90714285D01*
X127825619Y-90666666D01*
X127825619Y-90285714D02*
X127778000Y-90238095D01*
X127730381Y-90142857D01*
X127730381Y-89904761D01*
X127778000Y-89809523D01*
X127825619Y-89761904D01*
X127920857Y-89714285D01*
X128016095Y-89714285D01*
X128158952Y-89761904D01*
X128730381Y-90333333D01*
X128730381Y-89714285D01*
X133233334Y-107257143D02*
X133185715Y-107304762D01*
X133042858Y-107352381D01*
X132947620Y-107352381D01*
X132804762Y-107304762D01*
X132709524Y-107209524D01*
X132661905Y-107114286D01*
X132614286Y-106923810D01*
X132614286Y-106780952D01*
X132661905Y-106590476D01*
X132709524Y-106495238D01*
X132804762Y-106400000D01*
X132947620Y-106352381D01*
X133042858Y-106352381D01*
X133185715Y-106400000D01*
X133233334Y-106447619D01*
X133566667Y-106352381D02*
X134185715Y-106352381D01*
X133852381Y-106733333D01*
X133995239Y-106733333D01*
X134090477Y-106780952D01*
X134138096Y-106828571D01*
X134185715Y-106923810D01*
X134185715Y-107161905D01*
X134138096Y-107257143D01*
X134090477Y-107304762D01*
X133995239Y-107352381D01*
X133709524Y-107352381D01*
X133614286Y-107304762D01*
X133566667Y-107257143D01*
X156783334Y-87957143D02*
X156735715Y-88004762D01*
X156592858Y-88052381D01*
X156497620Y-88052381D01*
X156354762Y-88004762D01*
X156259524Y-87909524D01*
X156211905Y-87814286D01*
X156164286Y-87623810D01*
X156164286Y-87480952D01*
X156211905Y-87290476D01*
X156259524Y-87195238D01*
X156354762Y-87100000D01*
X156497620Y-87052381D01*
X156592858Y-87052381D01*
X156735715Y-87100000D01*
X156783334Y-87147619D01*
X157640477Y-87385714D02*
X157640477Y-88052381D01*
X157402381Y-87004762D02*
X157164286Y-87719048D01*
X157783334Y-87719048D01*
X161233334Y-80957143D02*
X161185715Y-81004762D01*
X161042858Y-81052381D01*
X160947620Y-81052381D01*
X160804762Y-81004762D01*
X160709524Y-80909524D01*
X160661905Y-80814286D01*
X160614286Y-80623810D01*
X160614286Y-80480952D01*
X160661905Y-80290476D01*
X160709524Y-80195238D01*
X160804762Y-80100000D01*
X160947620Y-80052381D01*
X161042858Y-80052381D01*
X161185715Y-80100000D01*
X161233334Y-80147619D01*
X162138096Y-80052381D02*
X161661905Y-80052381D01*
X161614286Y-80528571D01*
X161661905Y-80480952D01*
X161757143Y-80433333D01*
X161995239Y-80433333D01*
X162090477Y-80480952D01*
X162138096Y-80528571D01*
X162185715Y-80623810D01*
X162185715Y-80861905D01*
X162138096Y-80957143D01*
X162090477Y-81004762D01*
X161995239Y-81052381D01*
X161757143Y-81052381D01*
X161661905Y-81004762D01*
X161614286Y-80957143D01*
X164057143Y-91716666D02*
X164104762Y-91764285D01*
X164152381Y-91907142D01*
X164152381Y-92002380D01*
X164104762Y-92145238D01*
X164009524Y-92240476D01*
X163914286Y-92288095D01*
X163723810Y-92335714D01*
X163580952Y-92335714D01*
X163390476Y-92288095D01*
X163295238Y-92240476D01*
X163200000Y-92145238D01*
X163152381Y-92002380D01*
X163152381Y-91907142D01*
X163200000Y-91764285D01*
X163247619Y-91716666D01*
X163152381Y-90859523D02*
X163152381Y-91050000D01*
X163200000Y-91145238D01*
X163247619Y-91192857D01*
X163390476Y-91288095D01*
X163580952Y-91335714D01*
X163961905Y-91335714D01*
X164057143Y-91288095D01*
X164104762Y-91240476D01*
X164152381Y-91145238D01*
X164152381Y-90954761D01*
X164104762Y-90859523D01*
X164057143Y-90811904D01*
X163961905Y-90764285D01*
X163723810Y-90764285D01*
X163628571Y-90811904D01*
X163580952Y-90859523D01*
X163533333Y-90954761D01*
X163533333Y-91145238D01*
X163580952Y-91240476D01*
X163628571Y-91288095D01*
X163723810Y-91335714D01*
X173563334Y-89787143D02*
X173515715Y-89834762D01*
X173372858Y-89882381D01*
X173277620Y-89882381D01*
X173134762Y-89834762D01*
X173039524Y-89739524D01*
X172991905Y-89644286D01*
X172944286Y-89453810D01*
X172944286Y-89310952D01*
X172991905Y-89120476D01*
X173039524Y-89025238D01*
X173134762Y-88930000D01*
X173277620Y-88882381D01*
X173372858Y-88882381D01*
X173515715Y-88930000D01*
X173563334Y-88977619D01*
X174134762Y-89310952D02*
X174039524Y-89263333D01*
X173991905Y-89215714D01*
X173944286Y-89120476D01*
X173944286Y-89072857D01*
X173991905Y-88977619D01*
X174039524Y-88930000D01*
X174134762Y-88882381D01*
X174325239Y-88882381D01*
X174420477Y-88930000D01*
X174468096Y-88977619D01*
X174515715Y-89072857D01*
X174515715Y-89120476D01*
X174468096Y-89215714D01*
X174420477Y-89263333D01*
X174325239Y-89310952D01*
X174134762Y-89310952D01*
X174039524Y-89358571D01*
X173991905Y-89406190D01*
X173944286Y-89501429D01*
X173944286Y-89691905D01*
X173991905Y-89787143D01*
X174039524Y-89834762D01*
X174134762Y-89882381D01*
X174325239Y-89882381D01*
X174420477Y-89834762D01*
X174468096Y-89787143D01*
X174515715Y-89691905D01*
X174515715Y-89501429D01*
X174468096Y-89406190D01*
X174420477Y-89358571D01*
X174325239Y-89310952D01*
X161458334Y-99032143D02*
X161410715Y-99079762D01*
X161267858Y-99127381D01*
X161172620Y-99127381D01*
X161029762Y-99079762D01*
X160934524Y-98984524D01*
X160886905Y-98889286D01*
X160839286Y-98698810D01*
X160839286Y-98555952D01*
X160886905Y-98365476D01*
X160934524Y-98270238D01*
X161029762Y-98175000D01*
X161172620Y-98127381D01*
X161267858Y-98127381D01*
X161410715Y-98175000D01*
X161458334Y-98222619D01*
X161934524Y-99127381D02*
X162125000Y-99127381D01*
X162220239Y-99079762D01*
X162267858Y-99032143D01*
X162363096Y-98889286D01*
X162410715Y-98698810D01*
X162410715Y-98317857D01*
X162363096Y-98222619D01*
X162315477Y-98175000D01*
X162220239Y-98127381D01*
X162029762Y-98127381D01*
X161934524Y-98175000D01*
X161886905Y-98222619D01*
X161839286Y-98317857D01*
X161839286Y-98555952D01*
X161886905Y-98651190D01*
X161934524Y-98698810D01*
X162029762Y-98746429D01*
X162220239Y-98746429D01*
X162315477Y-98698810D01*
X162363096Y-98651190D01*
X162410715Y-98555952D01*
X163032143Y-108142857D02*
X163079762Y-108190476D01*
X163127381Y-108333333D01*
X163127381Y-108428571D01*
X163079762Y-108571429D01*
X162984524Y-108666667D01*
X162889286Y-108714286D01*
X162698810Y-108761905D01*
X162555952Y-108761905D01*
X162365476Y-108714286D01*
X162270238Y-108666667D01*
X162175000Y-108571429D01*
X162127381Y-108428571D01*
X162127381Y-108333333D01*
X162175000Y-108190476D01*
X162222619Y-108142857D01*
X163127381Y-107190476D02*
X163127381Y-107761905D01*
X163127381Y-107476191D02*
X162127381Y-107476191D01*
X162270238Y-107571429D01*
X162365476Y-107666667D01*
X162413095Y-107761905D01*
X162127381Y-106571429D02*
X162127381Y-106476190D01*
X162175000Y-106380952D01*
X162222619Y-106333333D01*
X162317857Y-106285714D01*
X162508333Y-106238095D01*
X162746429Y-106238095D01*
X162936905Y-106285714D01*
X163032143Y-106333333D01*
X163079762Y-106380952D01*
X163127381Y-106476190D01*
X163127381Y-106571429D01*
X163079762Y-106666667D01*
X163032143Y-106714286D01*
X162936905Y-106761905D01*
X162746429Y-106809524D01*
X162508333Y-106809524D01*
X162317857Y-106761905D01*
X162222619Y-106714286D01*
X162175000Y-106666667D01*
X162127381Y-106571429D01*
X171132143Y-100657143D02*
X171084524Y-100704762D01*
X170941667Y-100752381D01*
X170846429Y-100752381D01*
X170703571Y-100704762D01*
X170608333Y-100609524D01*
X170560714Y-100514286D01*
X170513095Y-100323810D01*
X170513095Y-100180952D01*
X170560714Y-99990476D01*
X170608333Y-99895238D01*
X170703571Y-99800000D01*
X170846429Y-99752381D01*
X170941667Y-99752381D01*
X171084524Y-99800000D01*
X171132143Y-99847619D01*
X172084524Y-100752381D02*
X171513095Y-100752381D01*
X171798809Y-100752381D02*
X171798809Y-99752381D01*
X171703571Y-99895238D01*
X171608333Y-99990476D01*
X171513095Y-100038095D01*
X173036905Y-100752381D02*
X172465476Y-100752381D01*
X172751190Y-100752381D02*
X172751190Y-99752381D01*
X172655952Y-99895238D01*
X172560714Y-99990476D01*
X172465476Y-100038095D01*
X127531905Y-106878381D02*
X127531905Y-105878381D01*
X127770000Y-105878381D01*
X127912858Y-105926000D01*
X128008096Y-106021238D01*
X128055715Y-106116476D01*
X128103334Y-106306952D01*
X128103334Y-106449810D01*
X128055715Y-106640286D01*
X128008096Y-106735524D01*
X127912858Y-106830762D01*
X127770000Y-106878381D01*
X127531905Y-106878381D01*
X129055715Y-106878381D02*
X128484286Y-106878381D01*
X128770000Y-106878381D02*
X128770000Y-105878381D01*
X128674762Y-106021238D01*
X128579524Y-106116476D01*
X128484286Y-106164095D01*
X142652381Y-104238095D02*
X141652381Y-104238095D01*
X141652381Y-104000000D01*
X141700000Y-103857142D01*
X141795238Y-103761904D01*
X141890476Y-103714285D01*
X142080952Y-103666666D01*
X142223810Y-103666666D01*
X142414286Y-103714285D01*
X142509524Y-103761904D01*
X142604762Y-103857142D01*
X142652381Y-104000000D01*
X142652381Y-104238095D01*
X141747619Y-103285714D02*
X141700000Y-103238095D01*
X141652381Y-103142857D01*
X141652381Y-102904761D01*
X141700000Y-102809523D01*
X141747619Y-102761904D01*
X141842857Y-102714285D01*
X141938095Y-102714285D01*
X142080952Y-102761904D01*
X142652381Y-103333333D01*
X142652381Y-102714285D01*
X116666667Y-90702381D02*
X116666667Y-91416667D01*
X116619047Y-91559524D01*
X116523809Y-91654762D01*
X116380952Y-91702381D01*
X116285714Y-91702381D01*
X117666667Y-91702381D02*
X117095238Y-91702381D01*
X117380952Y-91702381D02*
X117380952Y-90702381D01*
X117285714Y-90845238D01*
X117190476Y-90940476D01*
X117095238Y-90988095D01*
X177642381Y-90508333D02*
X178356667Y-90508333D01*
X178499524Y-90555953D01*
X178594762Y-90651191D01*
X178642381Y-90794048D01*
X178642381Y-90889286D01*
X177737619Y-90079762D02*
X177690000Y-90032143D01*
X177642381Y-89936905D01*
X177642381Y-89698809D01*
X177690000Y-89603571D01*
X177737619Y-89555952D01*
X177832857Y-89508333D01*
X177928095Y-89508333D01*
X178070952Y-89555952D01*
X178642381Y-90127381D01*
X178642381Y-89508333D01*
X181276667Y-95210381D02*
X181276667Y-95924667D01*
X181229047Y-96067524D01*
X181133809Y-96162762D01*
X180990952Y-96210381D01*
X180895714Y-96210381D01*
X181657619Y-95210381D02*
X182276667Y-95210381D01*
X181943333Y-95591333D01*
X182086191Y-95591333D01*
X182181429Y-95638952D01*
X182229048Y-95686571D01*
X182276667Y-95781810D01*
X182276667Y-96019905D01*
X182229048Y-96115143D01*
X182181429Y-96162762D01*
X182086191Y-96210381D01*
X181800476Y-96210381D01*
X181705238Y-96162762D01*
X181657619Y-96115143D01*
X129833334Y-86952381D02*
X129357143Y-86952381D01*
X129357143Y-85952381D01*
X130690477Y-86952381D02*
X130119048Y-86952381D01*
X130404762Y-86952381D02*
X130404762Y-85952381D01*
X130309524Y-86095238D01*
X130214286Y-86190476D01*
X130119048Y-86238095D01*
X143333334Y-100452381D02*
X142857143Y-100452381D01*
X142857143Y-99452381D01*
X143619048Y-99547619D02*
X143666667Y-99500000D01*
X143761905Y-99452381D01*
X144000001Y-99452381D01*
X144095239Y-99500000D01*
X144142858Y-99547619D01*
X144190477Y-99642857D01*
X144190477Y-99738095D01*
X144142858Y-99880952D01*
X143571429Y-100452381D01*
X144190477Y-100452381D01*
X144479762Y-94072619D02*
X144384524Y-94025000D01*
X144289286Y-93929762D01*
X144146429Y-93786905D01*
X144051190Y-93739286D01*
X143955952Y-93739286D01*
X144003571Y-93977381D02*
X143908333Y-93929762D01*
X143813095Y-93834524D01*
X143765476Y-93644048D01*
X143765476Y-93310714D01*
X143813095Y-93120238D01*
X143908333Y-93025000D01*
X144003571Y-92977381D01*
X144194048Y-92977381D01*
X144289286Y-93025000D01*
X144384524Y-93120238D01*
X144432143Y-93310714D01*
X144432143Y-93644048D01*
X144384524Y-93834524D01*
X144289286Y-93929762D01*
X144194048Y-93977381D01*
X144003571Y-93977381D01*
X145384524Y-93977381D02*
X144813095Y-93977381D01*
X145098809Y-93977381D02*
X145098809Y-92977381D01*
X145003571Y-93120238D01*
X144908333Y-93215476D01*
X144813095Y-93263095D01*
X156667619Y-91215238D02*
X156620000Y-91310476D01*
X156524762Y-91405714D01*
X156381905Y-91548571D01*
X156334286Y-91643810D01*
X156334286Y-91739048D01*
X156572381Y-91691429D02*
X156524762Y-91786667D01*
X156429524Y-91881905D01*
X156239048Y-91929524D01*
X155905714Y-91929524D01*
X155715238Y-91881905D01*
X155620000Y-91786667D01*
X155572381Y-91691429D01*
X155572381Y-91500952D01*
X155620000Y-91405714D01*
X155715238Y-91310476D01*
X155905714Y-91262857D01*
X156239048Y-91262857D01*
X156429524Y-91310476D01*
X156524762Y-91405714D01*
X156572381Y-91500952D01*
X156572381Y-91691429D01*
X155667619Y-90881905D02*
X155620000Y-90834286D01*
X155572381Y-90739048D01*
X155572381Y-90500952D01*
X155620000Y-90405714D01*
X155667619Y-90358095D01*
X155762857Y-90310476D01*
X155858095Y-90310476D01*
X156000952Y-90358095D01*
X156572381Y-90929524D01*
X156572381Y-90310476D01*
X169322762Y-85085619D02*
X169227524Y-85038000D01*
X169132286Y-84942762D01*
X168989429Y-84799905D01*
X168894190Y-84752286D01*
X168798952Y-84752286D01*
X168846571Y-84990381D02*
X168751333Y-84942762D01*
X168656095Y-84847524D01*
X168608476Y-84657048D01*
X168608476Y-84323714D01*
X168656095Y-84133238D01*
X168751333Y-84038000D01*
X168846571Y-83990381D01*
X169037048Y-83990381D01*
X169132286Y-84038000D01*
X169227524Y-84133238D01*
X169275143Y-84323714D01*
X169275143Y-84657048D01*
X169227524Y-84847524D01*
X169132286Y-84942762D01*
X169037048Y-84990381D01*
X168846571Y-84990381D01*
X169608476Y-83990381D02*
X170227524Y-83990381D01*
X169894190Y-84371333D01*
X170037048Y-84371333D01*
X170132286Y-84418952D01*
X170179905Y-84466571D01*
X170227524Y-84561810D01*
X170227524Y-84799905D01*
X170179905Y-84895143D01*
X170132286Y-84942762D01*
X170037048Y-84990381D01*
X169751333Y-84990381D01*
X169656095Y-84942762D01*
X169608476Y-84895143D01*
X157484762Y-105409619D02*
X157389524Y-105362000D01*
X157294286Y-105266762D01*
X157151429Y-105123905D01*
X157056190Y-105076286D01*
X156960952Y-105076286D01*
X157008571Y-105314381D02*
X156913333Y-105266762D01*
X156818095Y-105171524D01*
X156770476Y-104981048D01*
X156770476Y-104647714D01*
X156818095Y-104457238D01*
X156913333Y-104362000D01*
X157008571Y-104314381D01*
X157199048Y-104314381D01*
X157294286Y-104362000D01*
X157389524Y-104457238D01*
X157437143Y-104647714D01*
X157437143Y-104981048D01*
X157389524Y-105171524D01*
X157294286Y-105266762D01*
X157199048Y-105314381D01*
X157008571Y-105314381D01*
X158294286Y-104647714D02*
X158294286Y-105314381D01*
X158056190Y-104266762D02*
X157818095Y-104981048D01*
X158437143Y-104981048D01*
X164554762Y-102847619D02*
X164459524Y-102800000D01*
X164364286Y-102704762D01*
X164221429Y-102561905D01*
X164126190Y-102514286D01*
X164030952Y-102514286D01*
X164078571Y-102752381D02*
X163983333Y-102704762D01*
X163888095Y-102609524D01*
X163840476Y-102419048D01*
X163840476Y-102085714D01*
X163888095Y-101895238D01*
X163983333Y-101800000D01*
X164078571Y-101752381D01*
X164269048Y-101752381D01*
X164364286Y-101800000D01*
X164459524Y-101895238D01*
X164507143Y-102085714D01*
X164507143Y-102419048D01*
X164459524Y-102609524D01*
X164364286Y-102704762D01*
X164269048Y-102752381D01*
X164078571Y-102752381D01*
X165411905Y-101752381D02*
X164935714Y-101752381D01*
X164888095Y-102228571D01*
X164935714Y-102180952D01*
X165030952Y-102133333D01*
X165269048Y-102133333D01*
X165364286Y-102180952D01*
X165411905Y-102228571D01*
X165459524Y-102323810D01*
X165459524Y-102561905D01*
X165411905Y-102657143D01*
X165364286Y-102704762D01*
X165269048Y-102752381D01*
X165030952Y-102752381D01*
X164935714Y-102704762D01*
X164888095Y-102657143D01*
X123933334Y-93302381D02*
X123600000Y-92826190D01*
X123361905Y-93302381D02*
X123361905Y-92302381D01*
X123742858Y-92302381D01*
X123838096Y-92350000D01*
X123885715Y-92397619D01*
X123933334Y-92492857D01*
X123933334Y-92635714D01*
X123885715Y-92730952D01*
X123838096Y-92778571D01*
X123742858Y-92826190D01*
X123361905Y-92826190D01*
X124885715Y-93302381D02*
X124314286Y-93302381D01*
X124600000Y-93302381D02*
X124600000Y-92302381D01*
X124504762Y-92445238D01*
X124409524Y-92540476D01*
X124314286Y-92588095D01*
X128833334Y-93402381D02*
X128500000Y-92926190D01*
X128261905Y-93402381D02*
X128261905Y-92402381D01*
X128642858Y-92402381D01*
X128738096Y-92450000D01*
X128785715Y-92497619D01*
X128833334Y-92592857D01*
X128833334Y-92735714D01*
X128785715Y-92830952D01*
X128738096Y-92878571D01*
X128642858Y-92926190D01*
X128261905Y-92926190D01*
X129214286Y-92497619D02*
X129261905Y-92450000D01*
X129357143Y-92402381D01*
X129595239Y-92402381D01*
X129690477Y-92450000D01*
X129738096Y-92497619D01*
X129785715Y-92592857D01*
X129785715Y-92688095D01*
X129738096Y-92830952D01*
X129166667Y-93402381D01*
X129785715Y-93402381D01*
X140333334Y-94952381D02*
X140000000Y-94476190D01*
X139761905Y-94952381D02*
X139761905Y-93952381D01*
X140142858Y-93952381D01*
X140238096Y-94000000D01*
X140285715Y-94047619D01*
X140333334Y-94142857D01*
X140333334Y-94285714D01*
X140285715Y-94380952D01*
X140238096Y-94428571D01*
X140142858Y-94476190D01*
X139761905Y-94476190D01*
X140666667Y-93952381D02*
X141285715Y-93952381D01*
X140952381Y-94333333D01*
X141095239Y-94333333D01*
X141190477Y-94380952D01*
X141238096Y-94428571D01*
X141285715Y-94523810D01*
X141285715Y-94761905D01*
X141238096Y-94857143D01*
X141190477Y-94904762D01*
X141095239Y-94952381D01*
X140809524Y-94952381D01*
X140714286Y-94904762D01*
X140666667Y-94857143D01*
X146645334Y-94686381D02*
X146312000Y-94210190D01*
X146073905Y-94686381D02*
X146073905Y-93686381D01*
X146454858Y-93686381D01*
X146550096Y-93734000D01*
X146597715Y-93781619D01*
X146645334Y-93876857D01*
X146645334Y-94019714D01*
X146597715Y-94114952D01*
X146550096Y-94162571D01*
X146454858Y-94210190D01*
X146073905Y-94210190D01*
X147502477Y-94019714D02*
X147502477Y-94686381D01*
X147264381Y-93638762D02*
X147026286Y-94353048D01*
X147645334Y-94353048D01*
X161377334Y-94686381D02*
X161044000Y-94210190D01*
X160805905Y-94686381D02*
X160805905Y-93686381D01*
X161186858Y-93686381D01*
X161282096Y-93734000D01*
X161329715Y-93781619D01*
X161377334Y-93876857D01*
X161377334Y-94019714D01*
X161329715Y-94114952D01*
X161282096Y-94162571D01*
X161186858Y-94210190D01*
X160805905Y-94210190D01*
X162282096Y-93686381D02*
X161805905Y-93686381D01*
X161758286Y-94162571D01*
X161805905Y-94114952D01*
X161901143Y-94067333D01*
X162139239Y-94067333D01*
X162234477Y-94114952D01*
X162282096Y-94162571D01*
X162329715Y-94257810D01*
X162329715Y-94495905D01*
X162282096Y-94591143D01*
X162234477Y-94638762D01*
X162139239Y-94686381D01*
X161901143Y-94686381D01*
X161805905Y-94638762D01*
X161758286Y-94591143D01*
X156906934Y-82240381D02*
X156573600Y-81764190D01*
X156335505Y-82240381D02*
X156335505Y-81240381D01*
X156716458Y-81240381D01*
X156811696Y-81288000D01*
X156859315Y-81335619D01*
X156906934Y-81430857D01*
X156906934Y-81573714D01*
X156859315Y-81668952D01*
X156811696Y-81716571D01*
X156716458Y-81764190D01*
X156335505Y-81764190D01*
X157764077Y-81240381D02*
X157573600Y-81240381D01*
X157478362Y-81288000D01*
X157430743Y-81335619D01*
X157335505Y-81478476D01*
X157287886Y-81668952D01*
X157287886Y-82049905D01*
X157335505Y-82145143D01*
X157383124Y-82192762D01*
X157478362Y-82240381D01*
X157668839Y-82240381D01*
X157764077Y-82192762D01*
X157811696Y-82145143D01*
X157859315Y-82049905D01*
X157859315Y-81811810D01*
X157811696Y-81716571D01*
X157764077Y-81668952D01*
X157668839Y-81621333D01*
X157478362Y-81621333D01*
X157383124Y-81668952D01*
X157335505Y-81716571D01*
X157287886Y-81811810D01*
X164002381Y-87791666D02*
X163526190Y-88125000D01*
X164002381Y-88363095D02*
X163002381Y-88363095D01*
X163002381Y-87982142D01*
X163050000Y-87886904D01*
X163097619Y-87839285D01*
X163192857Y-87791666D01*
X163335714Y-87791666D01*
X163430952Y-87839285D01*
X163478571Y-87886904D01*
X163526190Y-87982142D01*
X163526190Y-88363095D01*
X163002381Y-87458333D02*
X163002381Y-86791666D01*
X164002381Y-87220238D01*
X157693334Y-95362381D02*
X157360000Y-94886190D01*
X157121905Y-95362381D02*
X157121905Y-94362381D01*
X157502858Y-94362381D01*
X157598096Y-94410000D01*
X157645715Y-94457619D01*
X157693334Y-94552857D01*
X157693334Y-94695714D01*
X157645715Y-94790952D01*
X157598096Y-94838571D01*
X157502858Y-94886190D01*
X157121905Y-94886190D01*
X158264762Y-94790952D02*
X158169524Y-94743333D01*
X158121905Y-94695714D01*
X158074286Y-94600476D01*
X158074286Y-94552857D01*
X158121905Y-94457619D01*
X158169524Y-94410000D01*
X158264762Y-94362381D01*
X158455239Y-94362381D01*
X158550477Y-94410000D01*
X158598096Y-94457619D01*
X158645715Y-94552857D01*
X158645715Y-94600476D01*
X158598096Y-94695714D01*
X158550477Y-94743333D01*
X158455239Y-94790952D01*
X158264762Y-94790952D01*
X158169524Y-94838571D01*
X158121905Y-94886190D01*
X158074286Y-94981429D01*
X158074286Y-95171905D01*
X158121905Y-95267143D01*
X158169524Y-95314762D01*
X158264762Y-95362381D01*
X158455239Y-95362381D01*
X158550477Y-95314762D01*
X158598096Y-95267143D01*
X158645715Y-95171905D01*
X158645715Y-94981429D01*
X158598096Y-94886190D01*
X158550477Y-94838571D01*
X158455239Y-94790952D01*
X172027381Y-91691666D02*
X171551190Y-92025000D01*
X172027381Y-92263095D02*
X171027381Y-92263095D01*
X171027381Y-91882142D01*
X171075000Y-91786904D01*
X171122619Y-91739285D01*
X171217857Y-91691666D01*
X171360714Y-91691666D01*
X171455952Y-91739285D01*
X171503571Y-91786904D01*
X171551190Y-91882142D01*
X171551190Y-92263095D01*
X172027381Y-91215476D02*
X172027381Y-91025000D01*
X171979762Y-90929761D01*
X171932143Y-90882142D01*
X171789286Y-90786904D01*
X171598810Y-90739285D01*
X171217857Y-90739285D01*
X171122619Y-90786904D01*
X171075000Y-90834523D01*
X171027381Y-90929761D01*
X171027381Y-91120238D01*
X171075000Y-91215476D01*
X171122619Y-91263095D01*
X171217857Y-91310714D01*
X171455952Y-91310714D01*
X171551190Y-91263095D01*
X171598810Y-91215476D01*
X171646429Y-91120238D01*
X171646429Y-90929761D01*
X171598810Y-90834523D01*
X171551190Y-90786904D01*
X171455952Y-90739285D01*
X163695143Y-81224381D02*
X163361809Y-80748190D01*
X163123714Y-81224381D02*
X163123714Y-80224381D01*
X163504667Y-80224381D01*
X163599905Y-80272000D01*
X163647524Y-80319619D01*
X163695143Y-80414857D01*
X163695143Y-80557714D01*
X163647524Y-80652952D01*
X163599905Y-80700571D01*
X163504667Y-80748190D01*
X163123714Y-80748190D01*
X164647524Y-81224381D02*
X164076095Y-81224381D01*
X164361809Y-81224381D02*
X164361809Y-80224381D01*
X164266571Y-80367238D01*
X164171333Y-80462476D01*
X164076095Y-80510095D01*
X165266571Y-80224381D02*
X165361810Y-80224381D01*
X165457048Y-80272000D01*
X165504667Y-80319619D01*
X165552286Y-80414857D01*
X165599905Y-80605333D01*
X165599905Y-80843429D01*
X165552286Y-81033905D01*
X165504667Y-81129143D01*
X165457048Y-81176762D01*
X165361810Y-81224381D01*
X165266571Y-81224381D01*
X165171333Y-81176762D01*
X165123714Y-81129143D01*
X165076095Y-81033905D01*
X165028476Y-80843429D01*
X165028476Y-80605333D01*
X165076095Y-80414857D01*
X165123714Y-80319619D01*
X165171333Y-80272000D01*
X165266571Y-80224381D01*
X171382381Y-84222857D02*
X170906190Y-84556191D01*
X171382381Y-84794286D02*
X170382381Y-84794286D01*
X170382381Y-84413333D01*
X170430000Y-84318095D01*
X170477619Y-84270476D01*
X170572857Y-84222857D01*
X170715714Y-84222857D01*
X170810952Y-84270476D01*
X170858571Y-84318095D01*
X170906190Y-84413333D01*
X170906190Y-84794286D01*
X171382381Y-83270476D02*
X171382381Y-83841905D01*
X171382381Y-83556191D02*
X170382381Y-83556191D01*
X170525238Y-83651429D01*
X170620476Y-83746667D01*
X170668095Y-83841905D01*
X171382381Y-82318095D02*
X171382381Y-82889524D01*
X171382381Y-82603810D02*
X170382381Y-82603810D01*
X170525238Y-82699048D01*
X170620476Y-82794286D01*
X170668095Y-82889524D01*
X160627381Y-98367857D02*
X160151190Y-98701191D01*
X160627381Y-98939286D02*
X159627381Y-98939286D01*
X159627381Y-98558333D01*
X159675000Y-98463095D01*
X159722619Y-98415476D01*
X159817857Y-98367857D01*
X159960714Y-98367857D01*
X160055952Y-98415476D01*
X160103571Y-98463095D01*
X160151190Y-98558333D01*
X160151190Y-98939286D01*
X160627381Y-97415476D02*
X160627381Y-97986905D01*
X160627381Y-97701191D02*
X159627381Y-97701191D01*
X159770238Y-97796429D01*
X159865476Y-97891667D01*
X159913095Y-97986905D01*
X159722619Y-97034524D02*
X159675000Y-96986905D01*
X159627381Y-96891667D01*
X159627381Y-96653571D01*
X159675000Y-96558333D01*
X159722619Y-96510714D01*
X159817857Y-96463095D01*
X159913095Y-96463095D01*
X160055952Y-96510714D01*
X160627381Y-97082143D01*
X160627381Y-96463095D01*
X164832143Y-108602381D02*
X164498809Y-108126190D01*
X164260714Y-108602381D02*
X164260714Y-107602381D01*
X164641667Y-107602381D01*
X164736905Y-107650000D01*
X164784524Y-107697619D01*
X164832143Y-107792857D01*
X164832143Y-107935714D01*
X164784524Y-108030952D01*
X164736905Y-108078571D01*
X164641667Y-108126190D01*
X164260714Y-108126190D01*
X165784524Y-108602381D02*
X165213095Y-108602381D01*
X165498809Y-108602381D02*
X165498809Y-107602381D01*
X165403571Y-107745238D01*
X165308333Y-107840476D01*
X165213095Y-107888095D01*
X166117857Y-107602381D02*
X166736905Y-107602381D01*
X166403571Y-107983333D01*
X166546429Y-107983333D01*
X166641667Y-108030952D01*
X166689286Y-108078571D01*
X166736905Y-108173810D01*
X166736905Y-108411905D01*
X166689286Y-108507143D01*
X166641667Y-108554762D01*
X166546429Y-108602381D01*
X166260714Y-108602381D01*
X166165476Y-108554762D01*
X166117857Y-108507143D01*
X160777381Y-108092857D02*
X160301190Y-108426191D01*
X160777381Y-108664286D02*
X159777381Y-108664286D01*
X159777381Y-108283333D01*
X159825000Y-108188095D01*
X159872619Y-108140476D01*
X159967857Y-108092857D01*
X160110714Y-108092857D01*
X160205952Y-108140476D01*
X160253571Y-108188095D01*
X160301190Y-108283333D01*
X160301190Y-108664286D01*
X160777381Y-107140476D02*
X160777381Y-107711905D01*
X160777381Y-107426191D02*
X159777381Y-107426191D01*
X159920238Y-107521429D01*
X160015476Y-107616667D01*
X160063095Y-107711905D01*
X160110714Y-106283333D02*
X160777381Y-106283333D01*
X159729762Y-106521429D02*
X160444048Y-106759524D01*
X160444048Y-106140476D01*
X171002381Y-105667857D02*
X170526190Y-106001191D01*
X171002381Y-106239286D02*
X170002381Y-106239286D01*
X170002381Y-105858333D01*
X170050000Y-105763095D01*
X170097619Y-105715476D01*
X170192857Y-105667857D01*
X170335714Y-105667857D01*
X170430952Y-105715476D01*
X170478571Y-105763095D01*
X170526190Y-105858333D01*
X170526190Y-106239286D01*
X171002381Y-104715476D02*
X171002381Y-105286905D01*
X171002381Y-105001191D02*
X170002381Y-105001191D01*
X170145238Y-105096429D01*
X170240476Y-105191667D01*
X170288095Y-105286905D01*
X170002381Y-103810714D02*
X170002381Y-104286905D01*
X170478571Y-104334524D01*
X170430952Y-104286905D01*
X170383333Y-104191667D01*
X170383333Y-103953571D01*
X170430952Y-103858333D01*
X170478571Y-103810714D01*
X170573810Y-103763095D01*
X170811905Y-103763095D01*
X170907143Y-103810714D01*
X170954762Y-103858333D01*
X171002381Y-103953571D01*
X171002381Y-104191667D01*
X170954762Y-104286905D01*
X170907143Y-104334524D01*
X134404762Y-95352381D02*
X134071428Y-94876190D01*
X133833333Y-95352381D02*
X133833333Y-94352381D01*
X134214286Y-94352381D01*
X134309524Y-94400000D01*
X134357143Y-94447619D01*
X134404762Y-94542857D01*
X134404762Y-94685714D01*
X134357143Y-94780952D01*
X134309524Y-94828571D01*
X134214286Y-94876190D01*
X133833333Y-94876190D01*
X134690476Y-94352381D02*
X135023809Y-95352381D01*
X135357143Y-94352381D01*
X136214286Y-95352381D02*
X135642857Y-95352381D01*
X135928571Y-95352381D02*
X135928571Y-94352381D01*
X135833333Y-94495238D01*
X135738095Y-94590476D01*
X135642857Y-94638095D01*
X149455143Y-92844857D02*
X149502762Y-92892476D01*
X149550381Y-93035333D01*
X149550381Y-93130571D01*
X149502762Y-93273429D01*
X149407524Y-93368667D01*
X149312286Y-93416286D01*
X149121810Y-93463905D01*
X148978952Y-93463905D01*
X148788476Y-93416286D01*
X148693238Y-93368667D01*
X148598000Y-93273429D01*
X148550381Y-93130571D01*
X148550381Y-93035333D01*
X148598000Y-92892476D01*
X148645619Y-92844857D01*
X149550381Y-91892476D02*
X149550381Y-92463905D01*
X149550381Y-92178191D02*
X148550381Y-92178191D01*
X148693238Y-92273429D01*
X148788476Y-92368667D01*
X148836095Y-92463905D01*
X148645619Y-91511524D02*
X148598000Y-91463905D01*
X148550381Y-91368667D01*
X148550381Y-91130571D01*
X148598000Y-91035333D01*
X148645619Y-90987714D01*
X148740857Y-90940095D01*
X148836095Y-90940095D01*
X148978952Y-90987714D01*
X149550381Y-91559143D01*
X149550381Y-90940095D01*
X147682143Y-83692857D02*
X147729762Y-83740476D01*
X147777381Y-83883333D01*
X147777381Y-83978571D01*
X147729762Y-84121429D01*
X147634524Y-84216667D01*
X147539286Y-84264286D01*
X147348810Y-84311905D01*
X147205952Y-84311905D01*
X147015476Y-84264286D01*
X146920238Y-84216667D01*
X146825000Y-84121429D01*
X146777381Y-83978571D01*
X146777381Y-83883333D01*
X146825000Y-83740476D01*
X146872619Y-83692857D01*
X147777381Y-82740476D02*
X147777381Y-83311905D01*
X147777381Y-83026191D02*
X146777381Y-83026191D01*
X146920238Y-83121429D01*
X147015476Y-83216667D01*
X147063095Y-83311905D01*
X146777381Y-82407143D02*
X146777381Y-81788095D01*
X147158333Y-82121429D01*
X147158333Y-81978571D01*
X147205952Y-81883333D01*
X147253571Y-81835714D01*
X147348810Y-81788095D01*
X147586905Y-81788095D01*
X147682143Y-81835714D01*
X147729762Y-81883333D01*
X147777381Y-81978571D01*
X147777381Y-82264286D01*
X147729762Y-82359524D01*
X147682143Y-82407143D01*
X152324762Y-84147619D02*
X152229524Y-84100000D01*
X152134286Y-84004762D01*
X151991429Y-83861905D01*
X151896190Y-83814286D01*
X151800952Y-83814286D01*
X151848571Y-84052381D02*
X151753333Y-84004762D01*
X151658095Y-83909524D01*
X151610476Y-83719048D01*
X151610476Y-83385714D01*
X151658095Y-83195238D01*
X151753333Y-83100000D01*
X151848571Y-83052381D01*
X152039048Y-83052381D01*
X152134286Y-83100000D01*
X152229524Y-83195238D01*
X152277143Y-83385714D01*
X152277143Y-83719048D01*
X152229524Y-83909524D01*
X152134286Y-84004762D01*
X152039048Y-84052381D01*
X151848571Y-84052381D01*
X153134286Y-83052381D02*
X152943809Y-83052381D01*
X152848571Y-83100000D01*
X152800952Y-83147619D01*
X152705714Y-83290476D01*
X152658095Y-83480952D01*
X152658095Y-83861905D01*
X152705714Y-83957143D01*
X152753333Y-84004762D01*
X152848571Y-84052381D01*
X153039048Y-84052381D01*
X153134286Y-84004762D01*
X153181905Y-83957143D01*
X153229524Y-83861905D01*
X153229524Y-83623810D01*
X153181905Y-83528571D01*
X153134286Y-83480952D01*
X153039048Y-83433333D01*
X152848571Y-83433333D01*
X152753333Y-83480952D01*
X152705714Y-83528571D01*
X152658095Y-83623810D01*
X156472381Y-86052857D02*
X155996190Y-86386191D01*
X156472381Y-86624286D02*
X155472381Y-86624286D01*
X155472381Y-86243333D01*
X155520000Y-86148095D01*
X155567619Y-86100476D01*
X155662857Y-86052857D01*
X155805714Y-86052857D01*
X155900952Y-86100476D01*
X155948571Y-86148095D01*
X155996190Y-86243333D01*
X155996190Y-86624286D01*
X156472381Y-85100476D02*
X156472381Y-85671905D01*
X156472381Y-85386191D02*
X155472381Y-85386191D01*
X155615238Y-85481429D01*
X155710476Y-85576667D01*
X155758095Y-85671905D01*
X155472381Y-84243333D02*
X155472381Y-84433810D01*
X155520000Y-84529048D01*
X155567619Y-84576667D01*
X155710476Y-84671905D01*
X155900952Y-84719524D01*
X156281905Y-84719524D01*
X156377143Y-84671905D01*
X156424762Y-84624286D01*
X156472381Y-84529048D01*
X156472381Y-84338571D01*
X156424762Y-84243333D01*
X156377143Y-84195714D01*
X156281905Y-84148095D01*
X156043810Y-84148095D01*
X155948571Y-84195714D01*
X155900952Y-84243333D01*
X155853333Y-84338571D01*
X155853333Y-84529048D01*
X155900952Y-84624286D01*
X155948571Y-84671905D01*
X156043810Y-84719524D01*
X146142381Y-83537857D02*
X145666190Y-83871191D01*
X146142381Y-84109286D02*
X145142381Y-84109286D01*
X145142381Y-83728333D01*
X145190000Y-83633095D01*
X145237619Y-83585476D01*
X145332857Y-83537857D01*
X145475714Y-83537857D01*
X145570952Y-83585476D01*
X145618571Y-83633095D01*
X145666190Y-83728333D01*
X145666190Y-84109286D01*
X146142381Y-82585476D02*
X146142381Y-83156905D01*
X146142381Y-82871191D02*
X145142381Y-82871191D01*
X145285238Y-82966429D01*
X145380476Y-83061667D01*
X145428095Y-83156905D01*
X145142381Y-82252143D02*
X145142381Y-81585476D01*
X146142381Y-82014048D01*
X151507143Y-93252381D02*
X151173809Y-92776190D01*
X150935714Y-93252381D02*
X150935714Y-92252381D01*
X151316667Y-92252381D01*
X151411905Y-92300000D01*
X151459524Y-92347619D01*
X151507143Y-92442857D01*
X151507143Y-92585714D01*
X151459524Y-92680952D01*
X151411905Y-92728571D01*
X151316667Y-92776190D01*
X150935714Y-92776190D01*
X152459524Y-93252381D02*
X151888095Y-93252381D01*
X152173809Y-93252381D02*
X152173809Y-92252381D01*
X152078571Y-92395238D01*
X151983333Y-92490476D01*
X151888095Y-92538095D01*
X153030952Y-92680952D02*
X152935714Y-92633333D01*
X152888095Y-92585714D01*
X152840476Y-92490476D01*
X152840476Y-92442857D01*
X152888095Y-92347619D01*
X152935714Y-92300000D01*
X153030952Y-92252381D01*
X153221429Y-92252381D01*
X153316667Y-92300000D01*
X153364286Y-92347619D01*
X153411905Y-92442857D01*
X153411905Y-92490476D01*
X153364286Y-92585714D01*
X153316667Y-92633333D01*
X153221429Y-92680952D01*
X153030952Y-92680952D01*
X152935714Y-92728571D01*
X152888095Y-92776190D01*
X152840476Y-92871429D01*
X152840476Y-93061905D01*
X152888095Y-93157143D01*
X152935714Y-93204762D01*
X153030952Y-93252381D01*
X153221429Y-93252381D01*
X153316667Y-93204762D01*
X153364286Y-93157143D01*
X153411905Y-93061905D01*
X153411905Y-92871429D01*
X153364286Y-92776190D01*
X153316667Y-92728571D01*
X153221429Y-92680952D01*
X144007143Y-83542857D02*
X144054762Y-83590476D01*
X144102381Y-83733333D01*
X144102381Y-83828571D01*
X144054762Y-83971429D01*
X143959524Y-84066667D01*
X143864286Y-84114286D01*
X143673810Y-84161905D01*
X143530952Y-84161905D01*
X143340476Y-84114286D01*
X143245238Y-84066667D01*
X143150000Y-83971429D01*
X143102381Y-83828571D01*
X143102381Y-83733333D01*
X143150000Y-83590476D01*
X143197619Y-83542857D01*
X144102381Y-82590476D02*
X144102381Y-83161905D01*
X144102381Y-82876191D02*
X143102381Y-82876191D01*
X143245238Y-82971429D01*
X143340476Y-83066667D01*
X143388095Y-83161905D01*
X143435714Y-81733333D02*
X144102381Y-81733333D01*
X143054762Y-81971429D02*
X143769048Y-82209524D01*
X143769048Y-81590476D01*
X155307143Y-98292857D02*
X155354762Y-98340476D01*
X155402381Y-98483333D01*
X155402381Y-98578571D01*
X155354762Y-98721429D01*
X155259524Y-98816667D01*
X155164286Y-98864286D01*
X154973810Y-98911905D01*
X154830952Y-98911905D01*
X154640476Y-98864286D01*
X154545238Y-98816667D01*
X154450000Y-98721429D01*
X154402381Y-98578571D01*
X154402381Y-98483333D01*
X154450000Y-98340476D01*
X154497619Y-98292857D01*
X155402381Y-97340476D02*
X155402381Y-97911905D01*
X155402381Y-97626191D02*
X154402381Y-97626191D01*
X154545238Y-97721429D01*
X154640476Y-97816667D01*
X154688095Y-97911905D01*
X154402381Y-96435714D02*
X154402381Y-96911905D01*
X154878571Y-96959524D01*
X154830952Y-96911905D01*
X154783333Y-96816667D01*
X154783333Y-96578571D01*
X154830952Y-96483333D01*
X154878571Y-96435714D01*
X154973810Y-96388095D01*
X155211905Y-96388095D01*
X155307143Y-96435714D01*
X155354762Y-96483333D01*
X155402381Y-96578571D01*
X155402381Y-96816667D01*
X155354762Y-96911905D01*
X155307143Y-96959524D01*
X125997143Y-102632857D02*
X126044762Y-102680476D01*
X126092381Y-102823333D01*
X126092381Y-102918571D01*
X126044762Y-103061429D01*
X125949524Y-103156667D01*
X125854286Y-103204286D01*
X125663810Y-103251905D01*
X125520952Y-103251905D01*
X125330476Y-103204286D01*
X125235238Y-103156667D01*
X125140000Y-103061429D01*
X125092381Y-102918571D01*
X125092381Y-102823333D01*
X125140000Y-102680476D01*
X125187619Y-102632857D01*
X126092381Y-101680476D02*
X126092381Y-102251905D01*
X126092381Y-101966191D02*
X125092381Y-101966191D01*
X125235238Y-102061429D01*
X125330476Y-102156667D01*
X125378095Y-102251905D01*
X125092381Y-100823333D02*
X125092381Y-101013810D01*
X125140000Y-101109048D01*
X125187619Y-101156667D01*
X125330476Y-101251905D01*
X125520952Y-101299524D01*
X125901905Y-101299524D01*
X125997143Y-101251905D01*
X126044762Y-101204286D01*
X126092381Y-101109048D01*
X126092381Y-100918571D01*
X126044762Y-100823333D01*
X125997143Y-100775714D01*
X125901905Y-100728095D01*
X125663810Y-100728095D01*
X125568571Y-100775714D01*
X125520952Y-100823333D01*
X125473333Y-100918571D01*
X125473333Y-101109048D01*
X125520952Y-101204286D01*
X125568571Y-101251905D01*
X125663810Y-101299524D01*
X177142381Y-91712857D02*
X176666190Y-92046191D01*
X177142381Y-92284286D02*
X176142381Y-92284286D01*
X176142381Y-91903333D01*
X176190000Y-91808095D01*
X176237619Y-91760476D01*
X176332857Y-91712857D01*
X176475714Y-91712857D01*
X176570952Y-91760476D01*
X176618571Y-91808095D01*
X176666190Y-91903333D01*
X176666190Y-92284286D01*
X177142381Y-90760476D02*
X177142381Y-91331905D01*
X177142381Y-91046191D02*
X176142381Y-91046191D01*
X176285238Y-91141429D01*
X176380476Y-91236667D01*
X176428095Y-91331905D01*
X177142381Y-90284286D02*
X177142381Y-90093810D01*
X177094762Y-89998571D01*
X177047143Y-89950952D01*
X176904286Y-89855714D01*
X176713810Y-89808095D01*
X176332857Y-89808095D01*
X176237619Y-89855714D01*
X176190000Y-89903333D01*
X176142381Y-89998571D01*
X176142381Y-90189048D01*
X176190000Y-90284286D01*
X176237619Y-90331905D01*
X176332857Y-90379524D01*
X176570952Y-90379524D01*
X176666190Y-90331905D01*
X176713810Y-90284286D01*
X176761429Y-90189048D01*
X176761429Y-89998571D01*
X176713810Y-89903333D01*
X176666190Y-89855714D01*
X176570952Y-89808095D01*
X174707143Y-84652381D02*
X174373809Y-84176190D01*
X174135714Y-84652381D02*
X174135714Y-83652381D01*
X174516667Y-83652381D01*
X174611905Y-83700000D01*
X174659524Y-83747619D01*
X174707143Y-83842857D01*
X174707143Y-83985714D01*
X174659524Y-84080952D01*
X174611905Y-84128571D01*
X174516667Y-84176190D01*
X174135714Y-84176190D01*
X175088095Y-83747619D02*
X175135714Y-83700000D01*
X175230952Y-83652381D01*
X175469048Y-83652381D01*
X175564286Y-83700000D01*
X175611905Y-83747619D01*
X175659524Y-83842857D01*
X175659524Y-83938095D01*
X175611905Y-84080952D01*
X175040476Y-84652381D01*
X175659524Y-84652381D01*
X176278571Y-83652381D02*
X176373810Y-83652381D01*
X176469048Y-83700000D01*
X176516667Y-83747619D01*
X176564286Y-83842857D01*
X176611905Y-84033333D01*
X176611905Y-84271429D01*
X176564286Y-84461905D01*
X176516667Y-84557143D01*
X176469048Y-84604762D01*
X176373810Y-84652381D01*
X176278571Y-84652381D01*
X176183333Y-84604762D01*
X176135714Y-84557143D01*
X176088095Y-84461905D01*
X176040476Y-84271429D01*
X176040476Y-84033333D01*
X176088095Y-83842857D01*
X176135714Y-83747619D01*
X176183333Y-83700000D01*
X176278571Y-83652381D01*
X176452381Y-82632857D02*
X175976190Y-82966191D01*
X176452381Y-83204286D02*
X175452381Y-83204286D01*
X175452381Y-82823333D01*
X175500000Y-82728095D01*
X175547619Y-82680476D01*
X175642857Y-82632857D01*
X175785714Y-82632857D01*
X175880952Y-82680476D01*
X175928571Y-82728095D01*
X175976190Y-82823333D01*
X175976190Y-83204286D01*
X175547619Y-82251905D02*
X175500000Y-82204286D01*
X175452381Y-82109048D01*
X175452381Y-81870952D01*
X175500000Y-81775714D01*
X175547619Y-81728095D01*
X175642857Y-81680476D01*
X175738095Y-81680476D01*
X175880952Y-81728095D01*
X176452381Y-82299524D01*
X176452381Y-81680476D01*
X176452381Y-80728095D02*
X176452381Y-81299524D01*
X176452381Y-81013810D02*
X175452381Y-81013810D01*
X175595238Y-81109048D01*
X175690476Y-81204286D01*
X175738095Y-81299524D01*
X173052381Y-105542857D02*
X172576190Y-105876191D01*
X173052381Y-106114286D02*
X172052381Y-106114286D01*
X172052381Y-105733333D01*
X172100000Y-105638095D01*
X172147619Y-105590476D01*
X172242857Y-105542857D01*
X172385714Y-105542857D01*
X172480952Y-105590476D01*
X172528571Y-105638095D01*
X172576190Y-105733333D01*
X172576190Y-106114286D01*
X172147619Y-105161905D02*
X172100000Y-105114286D01*
X172052381Y-105019048D01*
X172052381Y-104780952D01*
X172100000Y-104685714D01*
X172147619Y-104638095D01*
X172242857Y-104590476D01*
X172338095Y-104590476D01*
X172480952Y-104638095D01*
X173052381Y-105209524D01*
X173052381Y-104590476D01*
X172147619Y-104209524D02*
X172100000Y-104161905D01*
X172052381Y-104066667D01*
X172052381Y-103828571D01*
X172100000Y-103733333D01*
X172147619Y-103685714D01*
X172242857Y-103638095D01*
X172338095Y-103638095D01*
X172480952Y-103685714D01*
X173052381Y-104257143D01*
X173052381Y-103638095D01*
X175717143Y-100742381D02*
X175383809Y-100266190D01*
X175145714Y-100742381D02*
X175145714Y-99742381D01*
X175526667Y-99742381D01*
X175621905Y-99790000D01*
X175669524Y-99837619D01*
X175717143Y-99932857D01*
X175717143Y-100075714D01*
X175669524Y-100170952D01*
X175621905Y-100218571D01*
X175526667Y-100266190D01*
X175145714Y-100266190D01*
X176098095Y-99837619D02*
X176145714Y-99790000D01*
X176240952Y-99742381D01*
X176479048Y-99742381D01*
X176574286Y-99790000D01*
X176621905Y-99837619D01*
X176669524Y-99932857D01*
X176669524Y-100028095D01*
X176621905Y-100170952D01*
X176050476Y-100742381D01*
X176669524Y-100742381D01*
X177002857Y-99742381D02*
X177621905Y-99742381D01*
X177288571Y-100123333D01*
X177431429Y-100123333D01*
X177526667Y-100170952D01*
X177574286Y-100218571D01*
X177621905Y-100313810D01*
X177621905Y-100551905D01*
X177574286Y-100647143D01*
X177526667Y-100694762D01*
X177431429Y-100742381D01*
X177145714Y-100742381D01*
X177050476Y-100694762D01*
X177002857Y-100647143D01*
X176442381Y-105462857D02*
X175966190Y-105796191D01*
X176442381Y-106034286D02*
X175442381Y-106034286D01*
X175442381Y-105653333D01*
X175490000Y-105558095D01*
X175537619Y-105510476D01*
X175632857Y-105462857D01*
X175775714Y-105462857D01*
X175870952Y-105510476D01*
X175918571Y-105558095D01*
X175966190Y-105653333D01*
X175966190Y-106034286D01*
X175537619Y-105081905D02*
X175490000Y-105034286D01*
X175442381Y-104939048D01*
X175442381Y-104700952D01*
X175490000Y-104605714D01*
X175537619Y-104558095D01*
X175632857Y-104510476D01*
X175728095Y-104510476D01*
X175870952Y-104558095D01*
X176442381Y-105129524D01*
X176442381Y-104510476D01*
X175775714Y-103653333D02*
X176442381Y-103653333D01*
X175394762Y-103891429D02*
X176109048Y-104129524D01*
X176109048Y-103510476D01*
X149317143Y-84152381D02*
X148983809Y-83676190D01*
X148745714Y-84152381D02*
X148745714Y-83152381D01*
X149126667Y-83152381D01*
X149221905Y-83200000D01*
X149269524Y-83247619D01*
X149317143Y-83342857D01*
X149317143Y-83485714D01*
X149269524Y-83580952D01*
X149221905Y-83628571D01*
X149126667Y-83676190D01*
X148745714Y-83676190D01*
X149698095Y-83247619D02*
X149745714Y-83200000D01*
X149840952Y-83152381D01*
X150079048Y-83152381D01*
X150174286Y-83200000D01*
X150221905Y-83247619D01*
X150269524Y-83342857D01*
X150269524Y-83438095D01*
X150221905Y-83580952D01*
X149650476Y-84152381D01*
X150269524Y-84152381D01*
X151174286Y-83152381D02*
X150698095Y-83152381D01*
X150650476Y-83628571D01*
X150698095Y-83580952D01*
X150793333Y-83533333D01*
X151031429Y-83533333D01*
X151126667Y-83580952D01*
X151174286Y-83628571D01*
X151221905Y-83723810D01*
X151221905Y-83961905D01*
X151174286Y-84057143D01*
X151126667Y-84104762D01*
X151031429Y-84152381D01*
X150793333Y-84152381D01*
X150698095Y-84104762D01*
X150650476Y-84057143D01*
X166907143Y-93677381D02*
X166573809Y-93201190D01*
X166335714Y-93677381D02*
X166335714Y-92677381D01*
X166716667Y-92677381D01*
X166811905Y-92725000D01*
X166859524Y-92772619D01*
X166907143Y-92867857D01*
X166907143Y-93010714D01*
X166859524Y-93105952D01*
X166811905Y-93153571D01*
X166716667Y-93201190D01*
X166335714Y-93201190D01*
X167288095Y-92772619D02*
X167335714Y-92725000D01*
X167430952Y-92677381D01*
X167669048Y-92677381D01*
X167764286Y-92725000D01*
X167811905Y-92772619D01*
X167859524Y-92867857D01*
X167859524Y-92963095D01*
X167811905Y-93105952D01*
X167240476Y-93677381D01*
X167859524Y-93677381D01*
X168716667Y-92677381D02*
X168526190Y-92677381D01*
X168430952Y-92725000D01*
X168383333Y-92772619D01*
X168288095Y-92915476D01*
X168240476Y-93105952D01*
X168240476Y-93486905D01*
X168288095Y-93582143D01*
X168335714Y-93629762D01*
X168430952Y-93677381D01*
X168621429Y-93677381D01*
X168716667Y-93629762D01*
X168764286Y-93582143D01*
X168811905Y-93486905D01*
X168811905Y-93248810D01*
X168764286Y-93153571D01*
X168716667Y-93105952D01*
X168621429Y-93058333D01*
X168430952Y-93058333D01*
X168335714Y-93105952D01*
X168288095Y-93153571D01*
X168240476Y-93248810D01*
X165307143Y-99202381D02*
X164973809Y-98726190D01*
X164735714Y-99202381D02*
X164735714Y-98202381D01*
X165116667Y-98202381D01*
X165211905Y-98250000D01*
X165259524Y-98297619D01*
X165307143Y-98392857D01*
X165307143Y-98535714D01*
X165259524Y-98630952D01*
X165211905Y-98678571D01*
X165116667Y-98726190D01*
X164735714Y-98726190D01*
X165688095Y-98297619D02*
X165735714Y-98250000D01*
X165830952Y-98202381D01*
X166069048Y-98202381D01*
X166164286Y-98250000D01*
X166211905Y-98297619D01*
X166259524Y-98392857D01*
X166259524Y-98488095D01*
X166211905Y-98630952D01*
X165640476Y-99202381D01*
X166259524Y-99202381D01*
X166592857Y-98202381D02*
X167259524Y-98202381D01*
X166830952Y-99202381D01*
X124656381Y-106415905D02*
X125465905Y-106415905D01*
X125561143Y-106368286D01*
X125608762Y-106320667D01*
X125656381Y-106225429D01*
X125656381Y-106034952D01*
X125608762Y-105939714D01*
X125561143Y-105892095D01*
X125465905Y-105844476D01*
X124656381Y-105844476D01*
X125656381Y-104844476D02*
X125656381Y-105415905D01*
X125656381Y-105130191D02*
X124656381Y-105130191D01*
X124799238Y-105225429D01*
X124894476Y-105320667D01*
X124942095Y-105415905D01*
M02*
