G04 #@! TF.FileFunction,Legend,Bot*
%FSLAX46Y46*%
G04 Gerber Fmt 4.6, Leading zero omitted, Abs format (unit mm)*
G04 Created by KiCad (PCBNEW 4.0.7) date 04/28/20 22:06:06*
%MOMM*%
%LPD*%
G01*
G04 APERTURE LIST*
%ADD10C,0.100000*%
%ADD11C,0.150000*%
G04 APERTURE END LIST*
D10*
D11*
X176627381Y-101109524D02*
X176151190Y-100776190D01*
X176627381Y-100538095D02*
X175627381Y-100538095D01*
X175627381Y-100919048D01*
X175675000Y-101014286D01*
X175722619Y-101061905D01*
X175817857Y-101109524D01*
X175960714Y-101109524D01*
X176055952Y-101061905D01*
X176103571Y-101014286D01*
X176151190Y-100919048D01*
X176151190Y-100538095D01*
X176341667Y-101490476D02*
X176341667Y-101966667D01*
X176627381Y-101395238D02*
X175627381Y-101728571D01*
X176627381Y-102061905D01*
X175627381Y-102300000D02*
X176627381Y-102538095D01*
X175913095Y-102728572D01*
X176627381Y-102919048D01*
X175627381Y-103157143D01*
X178277381Y-99823810D02*
X177277381Y-99823810D01*
X178277381Y-100395239D01*
X177277381Y-100395239D01*
X177277381Y-101061905D02*
X177277381Y-101252382D01*
X177325000Y-101347620D01*
X177420238Y-101442858D01*
X177610714Y-101490477D01*
X177944048Y-101490477D01*
X178134524Y-101442858D01*
X178229762Y-101347620D01*
X178277381Y-101252382D01*
X178277381Y-101061905D01*
X178229762Y-100966667D01*
X178134524Y-100871429D01*
X177944048Y-100823810D01*
X177610714Y-100823810D01*
X177420238Y-100871429D01*
X177325000Y-100966667D01*
X177277381Y-101061905D01*
X178277381Y-101919048D02*
X177277381Y-101919048D01*
X178229762Y-102347619D02*
X178277381Y-102490476D01*
X178277381Y-102728572D01*
X178229762Y-102823810D01*
X178182143Y-102871429D01*
X178086905Y-102919048D01*
X177991667Y-102919048D01*
X177896429Y-102871429D01*
X177848810Y-102823810D01*
X177801190Y-102728572D01*
X177753571Y-102538095D01*
X177705952Y-102442857D01*
X177658333Y-102395238D01*
X177563095Y-102347619D01*
X177467857Y-102347619D01*
X177372619Y-102395238D01*
X177325000Y-102442857D01*
X177277381Y-102538095D01*
X177277381Y-102776191D01*
X177325000Y-102919048D01*
X177753571Y-103347619D02*
X177753571Y-103680953D01*
X178277381Y-103823810D02*
X178277381Y-103347619D01*
X177277381Y-103347619D01*
X177277381Y-103823810D01*
X176541667Y-83628572D02*
X176541667Y-84104763D01*
X176827381Y-83533334D02*
X175827381Y-83866667D01*
X176827381Y-84200001D01*
X176827381Y-84533334D02*
X175827381Y-84533334D01*
X176541667Y-84866668D01*
X175827381Y-85200001D01*
X176827381Y-85200001D01*
X176827381Y-85676191D02*
X175827381Y-85676191D01*
X175827381Y-86057144D01*
X175875000Y-86152382D01*
X175922619Y-86200001D01*
X176017857Y-86247620D01*
X176160714Y-86247620D01*
X176255952Y-86200001D01*
X176303571Y-86152382D01*
X176351190Y-86057144D01*
X176351190Y-85676191D01*
X176827381Y-87152382D02*
X176827381Y-86676191D01*
X175827381Y-86676191D01*
X176827381Y-87485715D02*
X175827381Y-87485715D01*
X176303571Y-88295239D02*
X176303571Y-87961905D01*
X176827381Y-87961905D02*
X175827381Y-87961905D01*
X175827381Y-88438096D01*
X176827381Y-88819048D02*
X175827381Y-88819048D01*
X176303571Y-89295238D02*
X176303571Y-89628572D01*
X176827381Y-89771429D02*
X176827381Y-89295238D01*
X175827381Y-89295238D01*
X175827381Y-89771429D01*
X176827381Y-90200000D02*
X175827381Y-90200000D01*
X175827381Y-90438095D01*
X175875000Y-90580953D01*
X175970238Y-90676191D01*
X176065476Y-90723810D01*
X176255952Y-90771429D01*
X176398810Y-90771429D01*
X176589286Y-90723810D01*
X176684524Y-90676191D01*
X176779762Y-90580953D01*
X176827381Y-90438095D01*
X176827381Y-90200000D01*
X178477381Y-85223810D02*
X177477381Y-85223810D01*
X178477381Y-85795239D01*
X177477381Y-85795239D01*
X177477381Y-86461905D02*
X177477381Y-86652382D01*
X177525000Y-86747620D01*
X177620238Y-86842858D01*
X177810714Y-86890477D01*
X178144048Y-86890477D01*
X178334524Y-86842858D01*
X178429762Y-86747620D01*
X178477381Y-86652382D01*
X178477381Y-86461905D01*
X178429762Y-86366667D01*
X178334524Y-86271429D01*
X178144048Y-86223810D01*
X177810714Y-86223810D01*
X177620238Y-86271429D01*
X177525000Y-86366667D01*
X177477381Y-86461905D01*
X178477381Y-87319048D02*
X177477381Y-87319048D01*
X178429762Y-87747619D02*
X178477381Y-87890476D01*
X178477381Y-88128572D01*
X178429762Y-88223810D01*
X178382143Y-88271429D01*
X178286905Y-88319048D01*
X178191667Y-88319048D01*
X178096429Y-88271429D01*
X178048810Y-88223810D01*
X178001190Y-88128572D01*
X177953571Y-87938095D01*
X177905952Y-87842857D01*
X177858333Y-87795238D01*
X177763095Y-87747619D01*
X177667857Y-87747619D01*
X177572619Y-87795238D01*
X177525000Y-87842857D01*
X177477381Y-87938095D01*
X177477381Y-88176191D01*
X177525000Y-88319048D01*
X177953571Y-88747619D02*
X177953571Y-89080953D01*
X178477381Y-89223810D02*
X178477381Y-88747619D01*
X177477381Y-88747619D01*
X177477381Y-89223810D01*
X123600000Y-80532143D02*
X123647619Y-80579762D01*
X123790476Y-80627381D01*
X123885714Y-80627381D01*
X124028572Y-80579762D01*
X124123810Y-80484524D01*
X124171429Y-80389286D01*
X124219048Y-80198810D01*
X124219048Y-80055952D01*
X124171429Y-79865476D01*
X124123810Y-79770238D01*
X124028572Y-79675000D01*
X123885714Y-79627381D01*
X123790476Y-79627381D01*
X123647619Y-79675000D01*
X123600000Y-79722619D01*
X123171429Y-80103571D02*
X122838095Y-80103571D01*
X122695238Y-80627381D02*
X123171429Y-80627381D01*
X123171429Y-79627381D01*
X122695238Y-79627381D01*
X122266667Y-80627381D02*
X122266667Y-79627381D01*
X121695238Y-80627381D01*
X121695238Y-79627381D01*
X121361905Y-79627381D02*
X120790476Y-79627381D01*
X121076191Y-80627381D02*
X121076191Y-79627381D01*
X120457143Y-80103571D02*
X120123809Y-80103571D01*
X119980952Y-80627381D02*
X120457143Y-80627381D01*
X120457143Y-79627381D01*
X119980952Y-79627381D01*
X118980952Y-80627381D02*
X119314286Y-80151190D01*
X119552381Y-80627381D02*
X119552381Y-79627381D01*
X119171428Y-79627381D01*
X119076190Y-79675000D01*
X119028571Y-79722619D01*
X118980952Y-79817857D01*
X118980952Y-79960714D01*
X119028571Y-80055952D01*
X119076190Y-80103571D01*
X119171428Y-80151190D01*
X119552381Y-80151190D01*
X117790476Y-80246429D02*
X117028571Y-80246429D01*
X117409523Y-80627381D02*
X117409523Y-79865476D01*
X123171428Y-82277381D02*
X123742857Y-82277381D01*
X123457143Y-82277381D02*
X123457143Y-81277381D01*
X123552381Y-81420238D01*
X123647619Y-81515476D01*
X123742857Y-81563095D01*
X122552381Y-81277381D02*
X122457142Y-81277381D01*
X122361904Y-81325000D01*
X122314285Y-81372619D01*
X122266666Y-81467857D01*
X122219047Y-81658333D01*
X122219047Y-81896429D01*
X122266666Y-82086905D01*
X122314285Y-82182143D01*
X122361904Y-82229762D01*
X122457142Y-82277381D01*
X122552381Y-82277381D01*
X122647619Y-82229762D01*
X122695238Y-82182143D01*
X122742857Y-82086905D01*
X122790476Y-81896429D01*
X122790476Y-81658333D01*
X122742857Y-81467857D01*
X122695238Y-81372619D01*
X122647619Y-81325000D01*
X122552381Y-81277381D01*
X121790476Y-81896429D02*
X121028571Y-81896429D01*
X120028571Y-82277381D02*
X120600000Y-82277381D01*
X120314286Y-82277381D02*
X120314286Y-81277381D01*
X120409524Y-81420238D01*
X120504762Y-81515476D01*
X120600000Y-81563095D01*
X119647619Y-81372619D02*
X119600000Y-81325000D01*
X119504762Y-81277381D01*
X119266666Y-81277381D01*
X119171428Y-81325000D01*
X119123809Y-81372619D01*
X119076190Y-81467857D01*
X119076190Y-81563095D01*
X119123809Y-81705952D01*
X119695238Y-82277381D01*
X119076190Y-82277381D01*
X118028571Y-81277381D02*
X117695238Y-82277381D01*
X117361904Y-81277381D01*
M02*
